<svg id="Layer_1" data-name="Layer 1" xmlns="http://www.w3.org/2000/svg" viewBox="0 0 110 58"><defs><style>.cls-1{fill:#3c59a8;}.cls-2{font-size:8.5px;fill:#fff;font-family:Gilroy-Light, Gilroy;font-weight:300;letter-spacing:-0.04em;}.cls-3{letter-spacing:-0.04em;}</style></defs><path class="cls-1" d="M46.5,34.37v-27c0-1.19-.24-1.44-1.42-1.46l-.28,0a6.91,6.91,0,0,1,0-.91.48.48,0,0,1,.32-.26q1.52-.3,3-.54c.4-.06.72.32.74.85s0,.89,0,1.33V42.77c0,.16,0,.32,0,.49a.74.74,0,0,0,.79.8h.71c.2.87.17.93-.58,1.23a11.08,11.08,0,0,1-1.14.42,1.26,1.26,0,0,1-1.49-.64,16.74,16.74,0,0,1-.75-1.75c-.22.31-.47.69-.74,1a4.09,4.09,0,0,1-4.36,1.47,6.12,6.12,0,0,1-4.44-5.27,8.49,8.49,0,0,1,1.24-5.8,5,5,0,0,1,7.4-1.2C45.86,33.79,46.13,34.05,46.5,34.37Zm0,4.44h0c0-.85,0-1.7,0-2.55a1,1,0,0,0-.13-.51A4.57,4.57,0,0,0,44.26,34a3.13,3.13,0,0,0-4.09,1.24,6.64,6.64,0,0,0-.85,2.87,6.73,6.73,0,0,0,1.24,4.95,3.11,3.11,0,0,0,3.58,1.21A3.76,3.76,0,0,0,46.5,41Z"/><path class="cls-1" d="M67.89,17.38a11.2,11.2,0,0,1-1.22-1.72,3.83,3.83,0,0,1,2.18-5.29,7.5,7.5,0,0,1,4.75-.15,4.1,4.1,0,0,1,2.23,1.49c.07-.2.11-.36.17-.52a2,2,0,0,1,2.92-1,1.21,1.21,0,0,1,.29,1.42c-.23.5-.56.64-1.17.49a.82.82,0,0,0-1.07.75,5.79,5.79,0,0,0-.11,1.17,4,4,0,0,1-3.23,4.11,8.13,8.13,0,0,1-4,0,2.92,2.92,0,0,0-1.52.12c-.74.25-.75,1.08-.09,1.58a5.23,5.23,0,0,0,2.34.77c1.85.35,3.73.59,5.54,1.11a3.46,3.46,0,0,1,1.41,5.87,6.32,6.32,0,0,1-3.85,1.82,11.75,11.75,0,0,1-5.24-.26,4.17,4.17,0,0,1-2.27-1.42,3.06,3.06,0,0,1,.77-4.53,14,14,0,0,1,1.53-.79,15.79,15.79,0,0,1-1.64-.77,2.65,2.65,0,0,1-1.35-2.1,2,2,0,0,1,1.68-2.07A7.3,7.3,0,0,1,67.89,17.38Zm3.69,11.19c.7-.06,1.29-.08,1.87-.16a2.54,2.54,0,0,0,2.36-1.53,4.4,4.4,0,0,0,.2-1.15c.12-1.42-.28-2-1.56-2.32s-2.82-.49-4.23-.72a1.53,1.53,0,0,0-1.88.91,4.83,4.83,0,0,0-.5,1.47c-.21,1.51.2,2.8,2,3.29A11.29,11.29,0,0,0,71.58,28.57ZM74.45,14h0c0-.28,0-.56,0-.83a2.12,2.12,0,0,0-.89-1.67,4,4,0,0,0-3.7,0,2.33,2.33,0,0,0-.7.8,3.27,3.27,0,0,0-.31,1.16,7.31,7.31,0,0,0,0,1.75c.32,1.77,1.69,2.23,3.24,2a2.3,2.3,0,0,0,2.28-2.11A8.19,8.19,0,0,0,74.45,14Z"/><path class="cls-1" d="M16,23.71A8.55,8.55,0,0,1,8.82,20,9.85,9.85,0,0,1,7,13.62,9,9,0,0,1,12.1,5.46a7.14,7.14,0,0,1,8.33,1.4c.29.32.52.26.69-.06a6.22,6.22,0,0,0,.37-1,.74.74,0,0,1,1-.52.43.43,0,0,1,.13.28c.07.87.13,1.73.19,2.59s.08,1.54.11,2.31c0,.55-.13.69-.89.85-.43.09-.56-.2-.68-.53a9.49,9.49,0,0,0-1.48-2.79,5.57,5.57,0,0,0-7.52-.89A6.38,6.38,0,0,0,10,11.12a11.08,11.08,0,0,0,1,7.27,7.06,7.06,0,0,0,3.45,3.41,4.77,4.77,0,0,0,5.17-.88,16.54,16.54,0,0,0,1.7-2.13.89.89,0,0,1,1.58,0,.8.8,0,0,1,0,.64,7.18,7.18,0,0,1-5.17,4.06C17.05,23.6,16.42,23.65,16,23.71Z"/><path class="cls-1" d="M32.11,27.75c.13.54,0,.83-.56.89a1.38,1.38,0,0,0-1.1.88c-.57,1.27-1.13,2.53-1.68,3.8-1,2.34-2,4.69-3,7q-1.05,2.49-2.13,5c-.09.21-.25.5-.44.55a.8.8,0,0,1-.94-.43C22,45,21.8,44.51,21.6,44L15.81,30.71a5.1,5.1,0,0,0-.72-1.32,2.83,2.83,0,0,0-1.15-.76c-.61-.21-.63-.15-.55-.87h6.06c.17.74.17.74-.56.85a3,3,0,0,0-.43.1c-.5.14-.58.33-.37.81L23.16,41.4c.09.22.2.43.33.7l3.81-8.9c.48-1.14,1-2.27,1.45-3.41.25-.6.12-.88-.5-1.07l-.42-.1c-.68-.15-.68-.15-.59-.87Z"/><path class="cls-1" d="M74.89,43.34a5.57,5.57,0,0,1-1.83,2A5.18,5.18,0,0,1,67.33,45a3.35,3.35,0,0,1,.46-5.33,12.23,12.23,0,0,1,4.1-1.48c.85-.19,1.72-.35,2.59-.48.3,0,.44-.12.38-.45A21.08,21.08,0,0,0,74.5,35a2,2,0,0,0-2-1.45,6.9,6.9,0,0,0-1.93.23c-.82.26-1,1.05-1,1.79,0,.48-.1.86-.58,1a1.61,1.61,0,0,1-1.63-.07A1.25,1.25,0,0,1,67,35.18a2.72,2.72,0,0,1,1.53-2,7.54,7.54,0,0,1,6.06-.44,3.72,3.72,0,0,1,2.57,3.53c.11,2.19.07,4.38.09,6.58,0,.23,0,.46,0,.69.05.68.4.94,1.07.86a.77.77,0,0,1,.47.13c0,.28,0,.75-.16.82a7.06,7.06,0,0,1-1.84.59,1,1,0,0,1-1.07-.63C75.39,44.68,75.16,44,74.89,43.34Zm0-4.74c-.78.15-1.52.26-2.24.44a7.36,7.36,0,0,0-3,1.3,2.65,2.65,0,0,0-.77,2.93,2.26,2.26,0,0,0,2.31,1.38,3.35,3.35,0,0,0,2.93-1.72,3.4,3.4,0,0,0,.69-1.4A25.71,25.71,0,0,0,74.86,38.6Z"/><path class="cls-1" d="M51.46,32.67h5.36v.71c-.3.08-.62.13-.92.23-.49.16-.57.35-.36.8,1.05,2.31,2.11,4.62,3.16,6.92l.49,1c.57-1.42,1.1-2.74,1.62-4.06s1-2.46,1.45-3.68c.26-.65.09-1-.61-1.1L61,33.4v-.73h4.63c.19.5,0,.82-.48.95A2,2,0,0,0,63.69,35Q61,41.62,58.24,48.19a17.59,17.59,0,0,1-1.32,2.55,3,3,0,0,1-4.12.72,1.88,1.88,0,0,1-.67-2.05,1.27,1.27,0,0,1,1.32-.73c.57,0,.77.2.92.81.09.36.12.78.59.85a1,1,0,0,0,1-.6c.51-1.1.92-2.26,1.51-3.32a2.61,2.61,0,0,0-.14-2.72c-1.51-3.06-2.95-6.16-4.41-9.25a1.36,1.36,0,0,0-1-.86C51.46,33.49,51.29,33.21,51.46,32.67Z"/><path class="cls-1" d="M54.67,16.8c-.19,2.18,1.22,4.9,3.54,5.27a4.11,4.11,0,0,0,4-1.61l.38-.47a6.06,6.06,0,0,1,.65.89.7.7,0,0,1-.16.56,5.23,5.23,0,0,1-3.61,2,6.35,6.35,0,0,1-4.74-1.09,6.69,6.69,0,0,1-2.64-4.47,7.59,7.59,0,0,1,.75-5,5.53,5.53,0,0,1,4.8-3,5.67,5.67,0,0,1,4.73,1.8,4.92,4.92,0,0,1,1.34,3.57c0,1-.53,1.48-1.6,1.48H54.67Zm6.63-1.29c-.1-.67-.14-1.3-.29-1.9a3,3,0,0,0-4.7-2,4.29,4.29,0,0,0-1.62,3.92Z"/><path class="cls-1" d="M82.86,16.8c.15,2.1.69,3.91,2.64,4.93a4,4,0,0,0,4.79-1l.59-.68.82,1a5.53,5.53,0,0,1-4.46,2.48,6.13,6.13,0,0,1-3.93-.93A6.59,6.59,0,0,1,80.4,18,7.9,7.9,0,0,1,81,13.23,5.51,5.51,0,0,1,85.58,10,5.7,5.7,0,0,1,90.9,12,4.85,4.85,0,0,1,92,15.6c-.06.75-.64,1.19-1.58,1.19H82.86Zm0-1.3h6.66c-.07-.55-.11-1.07-.21-1.58-.57-2.77-2.82-3.44-4.61-2.41C83.26,12.36,82.93,13.87,82.9,15.5Z"/><path class="cls-1" d="M31,23.51c-3,.07-5.66-2.82-5.88-6.06a7.46,7.46,0,0,1,1.3-5,6,6,0,0,1,7.71-1.76A6.16,6.16,0,0,1,37.42,16,7.34,7.34,0,0,1,36,21.15,5.77,5.77,0,0,1,31,23.51Zm4.1-6.59a17.57,17.57,0,0,0-.46-2.4,4.86,4.86,0,0,0-2.15-2.92A3.06,3.06,0,0,0,28.08,13a9,9,0,0,0-.23,5.39A5.06,5.06,0,0,0,30,21.65a3.14,3.14,0,0,0,4.48-1.2A9.86,9.86,0,0,0,35.1,16.92Z"/><path class="cls-1" d="M44,22a1.62,1.62,0,0,1-2.12,1.47A2.22,2.22,0,0,1,40,21.17c0-4.58,0-9.15,0-13.72,0-1.17-.46-1.68-1.57-1.56a.36.36,0,0,1-.16,0V4.74l2.38-.42a3.5,3.5,0,0,0,.66-.12c.61-.21,1,.17,1,.8,0,.45,0,.89,0,1.33V20.59c0,1.28.26,1.51,1.55,1.36C43.9,21.94,43.93,22,44,22Z"/><path class="cls-1" d="M33.84,43.35H31.65v-9.3h2.19Z"/><path class="cls-1" d="M31.64,44h2.24c-.11.59.32,1.34-.3,1.72a2.39,2.39,0,0,1-1.53.09C31.6,45.7,31.58,45.43,31.64,44Z"/><path class="cls-1" d="M32.74,30.93l1.15,2.46H31.6Z"/><circle class="cls-1" cx="92.01" cy="38.28" r="10.52"/><text class="cls-2" transform="translate(85.26 45.54) rotate(-28.02)">C<tspan class="cls-3" x="6.04" y="0">om</tspan></text></svg>